<svg xmlns="http://www.w3.org/2000/svg" viewBox="0 0 64 64">
  <rect width="64" height="64" rx="16" fill="#fbfaf8"/>
  <circle cx="32" cy="33" r="23" fill="#d6b995"/>
  <path d="M13 20c-3 6-2 15 4 22 3-11 6-18 12-25-6-3-12-3-16 3Z" fill="#27231f"/>
  <path d="M51 20c3 6 2 15-4 22-3-11-6-18-12-25 6-3 12-3 16 3Z" fill="#27231f"/>
  <path d="M17 35c2-13 9-22 15-22s13 9 15 22c-4-7-9-10-15-10s-11 3-15 10Z" fill="#c3a783" opacity=".9"/>
  <path d="M23 28c-2-5-1-9 2-12M30 26c-1-6 0-10 2-13M41 28c2-5 1-9-2-12" fill="none" stroke="#6d5847" stroke-width="2" stroke-linecap="round"/>
  <circle cx="23.5" cy="32" r="5.2" fill="#1d1a18"/>
  <circle cx="40.5" cy="32" r="5.2" fill="#1d1a18"/>
  <circle cx="25" cy="30" r="1.7" fill="#fffaf6" opacity=".9"/>
  <circle cx="42" cy="30" r="1.7" fill="#fffaf6" opacity=".9"/>
  <path d="M23 45c1-9 6-14 9-14s8 5 9 14c0 6-4 11-9 11s-9-5-9-11Z" fill="#30251f"/>
  <path d="M27 40c2-3 8-3 10 0-1 3-3 5-5 5s-4-2-5-5Z" fill="#111"/>
  <path d="M32 44v5M25 49c4 3 10 3 14 0" fill="none" stroke="#111" stroke-width="2" stroke-linecap="round"/>
  <path d="M18 39c2 2 5 3 8 2M46 39c-2 2-5 3-8 2" fill="none" stroke="#6d5847" stroke-width="2" stroke-linecap="round" opacity=".8"/>
  <path d="M18 55c8 6 20 6 28 0" fill="none" stroke="#b79772" stroke-width="3" stroke-linecap="round"/>
</svg>
